{
    "asset" : {
        "generator" : "Khronos glTF Blender I/O v1.8.19",
        "version" : "2.0"
    },
    "scene" : 0,
    "scenes" : [
        {
            "name" : "Scene",
            "nodes" : [
                0
            ]
        }
    ],
    "nodes" : [
        {
            "mesh" : 0,
            "name" : "Pant",
            "rotation" : [
                0.7071068286895752,
                0,
                0,
                0.7071067094802856
            ],
            "scale" : [
                0.010000000707805157,
                0.010000000707805157,
                0.010000000707805157
            ]
        }
    ],
    "materials" : [
        {
            "doubleSided" : true,
            "name" : "FABRIC 1_FRONT_43000.001",
            "pbrMetallicRoughness" : {
                "metallicFactor" : 0,
                "roughnessFactor" : 0.4636862874031067
            }
        }
    ],
    "meshes" : [
        {
            "name" : "Pant.001",
            "primitives" : [
                {
                    "attributes" : {
                        "POSITION" : 0,
                        "NORMAL" : 1,
                        "TEXCOORD_0" : 2
                    },
                    "indices" : 3,
                    "material" : 0
                }
            ]
        }
    ],
    "accessors" : [
        {
            "bufferView" : 0,
            "componentType" : 5126,
            "count" : 1212,
            "max" : [
                18.2594051361084,
                9.137537956237793,
                -14.372964859008789
            ],
            "min" : [
                -18.325468063354492,
                -17.173553466796875,
                -119.1912841796875
            ],
            "type" : "VEC3"
        },
        {
            "bufferView" : 1,
            "componentType" : 5126,
            "count" : 1212,
            "type" : "VEC3"
        },
        {
            "bufferView" : 2,
            "componentType" : 5126,
            "count" : 1212,
            "type" : "VEC2"
        },
        {
            "bufferView" : 3,
            "componentType" : 5123,
            "count" : 6444,
            "type" : "SCALAR"
        }
    ],
    "bufferViews" : [
        {
            "buffer" : 0,
            "byteLength" : 14544,
            "byteOffset" : 0
        },
        {
            "buffer" : 0,
            "byteLength" : 14544,
            "byteOffset" : 14544
        },
        {
            "buffer" : 0,
            "byteLength" : 9696,
            "byteOffset" : 29088
        },
        {
            "buffer" : 0,
            "byteLength" : 12888,
            "byteOffset" : 38784
        }
    ],
    "buffers" : [
        {
            "byteLength" : 51672,
            "uri" : "data:application/octet-stream;base64,"
        }
    ]
}
